<?xml version="1.0" standalone="no"?><!DOCTYPE svg PUBLIC "-//W3C//DTD SVG 1.1//EN" "http://www.w3.org/Graphics/SVG/1.1/DTD/svg11.dtd"><svg t="1592306541692" class="icon" viewBox="0 0 1024 1024" version="1.1" xmlns="http://www.w3.org/2000/svg" p-id="3086" xmlns:xlink="http://www.w3.org/1999/xlink" width="200" height="200"><defs><style type="text/css"></style></defs><path d="M999.0144 293.96992a23.3472 23.3472 0 0 0-16.91648 7.3728 25.8048 25.8048 0 0 0-7.00416 17.77664V438.272c0 53.6576-62.17728 99.00032-135.74144 99.00032s-135.74144-45.34272-135.74144-99.00032V319.0784c0-13.88544-10.69056-25.14944-23.92064-25.14944-13.23008 0-23.9616 11.264-23.9616 25.14944V438.272c0 53.6576-62.17728 99.00032-135.74144 99.00032S384.2048 491.88864 384.2048 438.23104V319.0784a25.8048 25.8048 0 0 0-7.00416-17.77664 22.69184 22.69184 0 0 0-24.90368-5.81632 22.69184 22.69184 0 0 0-24.9856 5.81632 25.8048 25.8048 0 0 0-6.9632 17.77664V438.272c0 53.6576-62.17728 99.00032-135.74144 99.00032s-135.74144-45.34272-135.74144-99.00032V319.0784c0-13.88544-10.73152-25.14944-23.9616-25.14944-13.23008 0-23.9616 11.264-23.9616 25.14944V438.272c0 47.22688 27.19744 89.2928 69.38624 116.69504-3.39968 4.34176-5.48864-17.69472-5.48864-17.69472V981.8112c0 6.63552 2.49856 13.06624 7.00416 17.77664a23.3472 23.3472 0 0 0 16.95744 7.3728h830.38208a23.3472 23.3472 0 0 0 16.91648-7.3728 25.8048 25.8048 0 0 0 7.00416-17.77664V570.7776a26.0096 26.0096 0 0 0-1.51552-8.6016c49.02912-26.8288 81.38752-72.37632 81.38752-123.98592V319.11936a25.8048 25.8048 0 0 0-7.04512-17.77664 23.3472 23.3472 0 0 0-16.91648-7.3728z m-103.75168 662.65088H112.76288v-381.00992c22.1184 7.70048 46.40768 11.96032 71.8848 11.96032 74.71104 0 139.01824-36.53632 167.64928-88.71936 28.672 52.18304 92.9792 88.71936 167.69024 88.71936 68.4032 0 128.08192-30.63808 159.70304-75.85792 31.58016 45.21984 91.25888 75.85792 159.66208 75.85792 19.49696 0 38.25664-2.53952 55.9104-7.12704v376.17664z" fill="#5AB92B" p-id="3087"></path><path d="M384.24576 721.75616h223.55968v268.41088H384.24576z" fill="#5AB92B" p-id="3088"></path><path d="M615.79264 1006.96064H392.23296a23.3472 23.3472 0 0 1-16.91648-7.3728 25.8048 25.8048 0 0 1-7.04512-17.77664v-268.45184a25.8048 25.8048 0 0 1 7.04512-17.77664 23.3472 23.3472 0 0 1 16.91648-7.3728h223.55968a23.3472 23.3472 0 0 1 16.95744 7.3728 25.8048 25.8048 0 0 1 6.9632 17.77664v268.45184a25.8048 25.8048 0 0 1-6.9632 17.77664 23.3472 23.3472 0 0 1-16.95744 7.3728z m-199.59808-50.33984h175.63648v-218.07104h-175.63648v218.07104zM999.0144 335.91296H24.9856L152.65792 33.95584h718.60224z" fill="#5AB92B" p-id="3089"></path><path d="M999.38304 352.6656H24.94464a23.67488 23.67488 0 0 1-20.0704-11.42784 26.25536 26.25536 0 0 1-1.80224-23.9616L130.82624 15.31904A23.92064 23.92064 0 0 1 152.69888 0.4096h718.60224c9.46176 0 18.0224 5.85728 21.87264 14.9504l126.27968 298.47552a26.2144 26.2144 0 0 1 0.98304 25.72288 23.7568 23.7568 0 0 1-21.05344 13.1072zM61.80864 302.40768h900.38272l-106.496-251.65824H168.30464L61.8496 302.36672z" fill="#5AB92B" p-id="3090"></path></svg>